<?xml version="1.0" encoding="utf-8"?>
<!-- Generator: Adobe Illustrator 23.0.1, SVG Export Plug-In . SVG Version: 6.00 Build 0)  -->
<svg version="1.1" id="Layer_1" xmlns="http://www.w3.org/2000/svg" xmlns:xlink="http://www.w3.org/1999/xlink" x="0px" y="0px"
	 viewBox="0 0 230.8 90.5" style="enable-background:new 0 0 230.8 90.5;" xml:space="preserve">
<style type="text/css">
	.st0{fill:#4285F4;}
</style>
<path d="M71.7,51.7c0,11.8-9.3,20.6-20.6,20.6s-20.6-8.7-20.6-20.6c0-11.9,9.3-20.6,20.6-20.6S71.7,39.8,71.7,51.7z M62.7,51.7
	c0-7.4-5.4-12.5-11.6-12.5s-11.6,5.1-11.6,12.5c0,7.3,5.4,12.5,11.6,12.5S62.7,59,62.7,51.7z"/>
<polygon points="18.1,62.8 18.1,7.3 8.6,7.3 8.6,72.3 9.1,72.3 18.1,72.3 28.9,72.3 28.9,62.8 "/>
<path d="M150.9,59.2l6.9,5.1c-2.5,3.3-8.3,9-17.9,8.5c-11.9-0.5-20.4-10.1-19.9-21.9c0.6-12.5,9.9-20.6,20.7-20.1
	c10.9,0.5,15.8,9.4,17.4,14.1l0.9,2.4l-28.6,10.4c2,4.3,5.2,6.6,9.9,6.8C145.1,64.8,148.4,62.6,150.9,59.2L150.9,59.2z M129.3,50.7
	l19.1-7c-0.9-2.7-3.9-4.6-7.6-4.8C136.1,38.7,129.4,42.6,129.3,50.7z"/>
<path d="M96.1,31.2c-11.4,0-20.6,8.6-20.6,20.6v0l0,0v35.7l8.9,0V68.8c3.3,2.2,7.3,3.5,11.7,3.5c11.4,0,20.6-8.7,20.6-20.6
	C116.7,39.8,107.4,31.2,96.1,31.2z M96.1,64.2c-6.2,0-11.6-5.1-11.6-12.5c0-7.4,5.4-12.5,11.6-12.5s11.6,5.1,11.6,12.5
	C107.7,59,102.3,64.2,96.1,64.2z"/>
<circle class="st0" cx="220.9" cy="66.6" r="5.6"/>
<g>
	<path d="M193.6,64.4v7.9H162v-6.6L181.8,39l-18.4,0v-7.9l29.4,0v6.6l-19.7,26.6H193.6z"/>
</g>
<path d="M208.3,31.1v41.1h-9V31.1H208.3z"/>
</svg>
